<?xml version="1.0" encoding="utf-8"?>
<!-- Generator: Adobe Illustrator 28.2.0, SVG Export Plug-In . SVG Version: 6.00 Build 0)  -->
<svg version="1.1" id="Layer_1" xmlns="http://www.w3.org/2000/svg" xmlns:xlink="http://www.w3.org/1999/xlink" x="0px" y="0px"
	 viewBox="0 0 841.89 595.28" style="enable-background:new 0 0 841.89 595.28;" xml:space="preserve">
<style type="text/css">
	.st0{fill:#130D0D;stroke:#000000;stroke-miterlimit:10;}
</style>
<path class="st0" d="M440.58,278.41c0,0,65.09,78.09,61.74,84.13c-2.77,4.99-64.6,98.73-68.45,101.77c-7.66,6.07-85.23,0-85.23,0
	l75.84-96.64l-21.48-27.52c0,0-4.7-4.03-2.01-10.74C403.66,322.7,440.58,278.41,440.58,278.41z"/>
<g>
	<path class="st0" d="M455.33,237.71l-60.4-6.04c0,0-17.45,22.87-26.85,36.29c-9.4,13.42-49.66,64.43-49.66,64.43l51.68,74.44
		l32.89-50.28c0,0-22.15-18.79-19.46-25.5C386.21,324.34,455.33,237.71,455.33,237.71"/>
</g>
</svg>
